# ProBuilder 5.0.3
# https://unity3d.com/unity/features/worldbuilding/probuilder
# 16.11.2021 22:11:34

mtllib ./Tree_Billboard_02.mtl
o Tree_Billboard_02

g Tree_Billboard_02
v 0.8227072 0 0
v 1.028383 0.4501034 0
v 1.028383 0 0
v 0.8227072 0.4501034 0
v 0.6170301 0 0
v 1.028383 0.900207 0
v 0.6170301 0.4501034 0
v 0.4113536 0 0
v 0.8227072 0.900207 0
v 1.028383 1.350311 0
v 0.4113536 0.4501034 0
v 0.205677 0 0
v 0.6170301 0.900207 0
v 0.8227072 1.350311 0
v 1.028383 1.800414 0
v 0.205677 0.4501034 0
v 0 0 0
v 0.4113536 0.900207 0
v 0.6170301 1.350311 0
v 0.8227072 1.800414 0
v 1.028383 2.250518 0
v 0 0.4501034 0
v -0.2056766 0 0
v 0.205677 0.900207 0
v 0.4113536 1.350311 0
v 0.6170301 1.800414 0
v 0.8227072 2.250518 0
v 1.028383 2.700621 0
v -0.2056766 0.4501034 0
v -0.4113531 0 0
v 0 0.900207 0
v 0.205677 1.350311 0
v 0.4113536 1.800414 0
v 0.6170301 2.250518 0
v 0.8227072 2.700621 0
v 1.028383 3.150725 0
v -0.4113531 0.4501034 0
v -0.6170297 0 0
v -0.2056766 0.900207 0
v 0 1.350311 0
v 0.205677 1.800414 0
v 0.4113536 2.250518 0
v 0.6170301 2.700621 0
v 0.8227072 3.150725 0
v 1.028383 3.600828 0
v 0.8227072 3.600828 0
v 1.028383 4.050932 0
v 0.6170301 3.150725 0
v 0.4113536 2.700621 0
v 0.205677 2.250518 0
v 0 1.800414 0
v 0.8227072 4.050932 0
v 1.028383 4.501035 0
v 0.8227072 4.501035 0
v 0.6170301 3.600828 0
v 0.6170301 4.050932 0
v 0.6170301 4.501035 0
v 0.4113536 3.150725 0
v 0.205677 2.700621 0
v 0.4113536 3.600828 0
v 0.4113536 4.050932 0
v 0.4113536 4.501035 0
v 0.205677 3.150725 0
v 0 2.250518 0
v 0.205677 3.600828 0
v 0.205677 4.050932 0
v 0.205677 4.501035 0
v 0 2.700621 0
v 0 3.150725 0
v 0 3.600828 0
v 0 4.050932 0
v 0 4.501035 0
v -0.2056766 4.050932 0
v -0.2056766 4.501035 0
v -0.2056766 3.600828 0
v -0.2056766 3.150725 0
v -0.2056766 2.700621 0
v -0.2056766 2.250518 0
v -0.4113531 4.050932 0
v -0.4113531 4.501035 0
v -0.4113531 3.600828 0
v -0.4113531 3.150725 0
v -0.4113531 2.700621 0
v -0.6170297 4.050932 0
v -0.6170297 4.501035 0
v -0.6170297 3.600828 0
v -0.6170297 3.150725 0
v -0.8227062 4.050932 0
v -0.8227062 4.501035 0
v -0.8227062 3.600828 0
v -1.028383 4.050932 0
v -1.028383 4.501035 0
v -1.028383 3.600828 0
v -1.028383 3.150725 0
v -0.8227062 3.150725 0
v -1.028383 2.700621 0
v -0.8227062 2.700621 0
v -1.028383 2.250518 0
v -0.6170297 2.700621 0
v -0.8227062 2.250518 0
v -1.028383 1.800414 0
v -0.6170297 2.250518 0
v -0.8227062 1.800414 0
v -1.028383 1.350311 0
v -0.4113531 2.250518 0
v -0.8227062 1.350311 0
v -1.028383 0.900207 0
v -0.6170297 1.800414 0
v -0.4113531 1.800414 0
v -0.8227062 0.900207 0
v -1.028383 0.4501034 0
v -0.6170297 1.350311 0
v -0.2056766 1.800414 0
v -0.8227062 0.4501034 0
v -1.028383 0 0
v -0.8227062 0 0
v -0.6170297 0.900207 0
v -0.4113531 1.350311 0
v -0.2056766 1.350311 0
v -0.6170297 0.4501034 0
v -0.4113531 0.900207 0

vt 0.9 0
vt 1 0.1
vt 1 0
vt 0.9 0.1
vt 0.8 0
vt 1 0.2
vt 0.8 0.1
vt 0.7 0
vt 0.9 0.2
vt 1 0.3
vt 0.7 0.1
vt 0.6 0
vt 0.8 0.2
vt 0.9 0.3
vt 1 0.4
vt 0.6 0.1
vt 0.5 0
vt 0.7 0.2
vt 0.8 0.3
vt 0.9 0.4
vt 1 0.5
vt 0.5 0.1
vt 0.4 0
vt 0.6 0.2
vt 0.7 0.3
vt 0.8 0.4
vt 0.9 0.5
vt 1 0.6
vt 0.4 0.1
vt 0.3 0
vt 0.5 0.2
vt 0.6 0.3
vt 0.7 0.4
vt 0.8 0.5
vt 0.9 0.6
vt 1 0.7
vt 0.3 0.1
vt 0.2 0
vt 0.4 0.2
vt 0.5 0.3
vt 0.6 0.4
vt 0.7 0.5
vt 0.8 0.6
vt 0.9 0.7
vt 1 0.8
vt 0.9 0.8
vt 1 0.9
vt 0.8 0.7
vt 0.7 0.6
vt 0.6 0.5
vt 0.5 0.4
vt 0.9 0.9
vt 1 1
vt 0.9 1
vt 0.8 0.8
vt 0.8 0.9
vt 0.8 1
vt 0.7 0.7
vt 0.6 0.6
vt 0.7 0.8
vt 0.7 0.9
vt 0.7 1
vt 0.6 0.7
vt 0.5 0.5
vt 0.6 0.8
vt 0.6 0.9
vt 0.6 1
vt 0.5 0.6
vt 0.5 0.7
vt 0.5 0.8
vt 0.5 0.9
vt 0.5 1
vt 0.4 0.9
vt 0.4 1
vt 0.4 0.8
vt 0.4 0.7
vt 0.4 0.6
vt 0.4 0.5
vt 0.3 0.9
vt 0.3 1
vt 0.3 0.8
vt 0.3 0.7
vt 0.3 0.6
vt 0.2 0.9
vt 0.2 1
vt 0.2 0.8
vt 0.2 0.7
vt 0.1 0.9
vt 0.1 1
vt 0.1 0.8
vt 0 0.9
vt 0 1
vt 0 0.8
vt 0 0.7
vt 0.1 0.7
vt 0 0.6
vt 0.1 0.6
vt 0 0.5
vt 0.2 0.6
vt 0.1 0.5
vt 0 0.4
vt 0.2 0.5
vt 0.1 0.4
vt 0 0.3
vt 0.3 0.5
vt 0.1 0.3
vt 0 0.2
vt 0.2 0.4
vt 0.3 0.4
vt 0.1 0.2
vt 0 0.1
vt 0.2 0.3
vt 0.4 0.4
vt 0.1 0.1
vt 0 0
vt 0.1 0
vt 0.2 0.2
vt 0.3 0.3
vt 0.4 0.3
vt 0.2 0.1
vt 0.3 0.2

vn 0 0 1

usemtl Billboard_Tree
f 4/4/1 1/1/1 3/3/1 2/2/1
f 7/7/1 5/5/1 1/1/1 4/4/1
f 9/9/1 4/4/1 2/2/1 6/6/1
f 11/11/1 8/8/1 5/5/1 7/7/1
f 13/13/1 7/7/1 4/4/1 9/9/1
f 14/14/1 9/9/1 6/6/1 10/10/1
f 16/16/1 12/12/1 8/8/1 11/11/1
f 18/18/1 11/11/1 7/7/1 13/13/1
f 19/19/1 13/13/1 9/9/1 14/14/1
f 20/20/1 14/14/1 10/10/1 15/15/1
f 22/22/1 17/17/1 12/12/1 16/16/1
f 24/24/1 16/16/1 11/11/1 18/18/1
f 25/25/1 18/18/1 13/13/1 19/19/1
f 26/26/1 19/19/1 14/14/1 20/20/1
f 27/27/1 20/20/1 15/15/1 21/21/1
f 29/29/1 23/23/1 17/17/1 22/22/1
f 31/31/1 22/22/1 16/16/1 24/24/1
f 32/32/1 24/24/1 18/18/1 25/25/1
f 33/33/1 25/25/1 19/19/1 26/26/1
f 34/34/1 26/26/1 20/20/1 27/27/1
f 35/35/1 27/27/1 21/21/1 28/28/1
f 37/37/1 30/30/1 23/23/1 29/29/1
f 39/39/1 29/29/1 22/22/1 31/31/1
f 40/40/1 31/31/1 24/24/1 32/32/1
f 41/41/1 32/32/1 25/25/1 33/33/1
f 42/42/1 33/33/1 26/26/1 34/34/1
f 43/43/1 34/34/1 27/27/1 35/35/1
f 44/44/1 35/35/1 28/28/1 36/36/1
f 120/120/1 38/38/1 30/30/1 37/37/1
f 121/121/1 37/37/1 29/29/1 39/39/1
f 119/119/1 39/39/1 31/31/1 40/40/1
f 51/51/1 40/40/1 32/32/1 41/41/1
f 50/50/1 41/41/1 33/33/1 42/42/1
f 49/49/1 42/42/1 34/34/1 43/43/1
f 48/48/1 43/43/1 35/35/1 44/44/1
f 46/46/1 44/44/1 36/36/1 45/45/1
f 52/52/1 46/46/1 45/45/1 47/47/1
f 55/55/1 48/48/1 44/44/1 46/46/1
f 58/58/1 49/49/1 43/43/1 48/48/1
f 59/59/1 50/50/1 42/42/1 49/49/1
f 64/64/1 51/51/1 41/41/1 50/50/1
f 54/54/1 52/52/1 47/47/1 53/53/1
f 56/56/1 55/55/1 46/46/1 52/52/1
f 57/57/1 56/56/1 52/52/1 54/54/1
f 60/60/1 58/58/1 48/48/1 55/55/1
f 63/63/1 59/59/1 49/49/1 58/58/1
f 61/61/1 60/60/1 55/55/1 56/56/1
f 62/62/1 61/61/1 56/56/1 57/57/1
f 65/65/1 63/63/1 58/58/1 60/60/1
f 68/68/1 64/64/1 50/50/1 59/59/1
f 66/66/1 65/65/1 60/60/1 61/61/1
f 67/67/1 66/66/1 61/61/1 62/62/1
f 69/69/1 68/68/1 59/59/1 63/63/1
f 70/70/1 69/69/1 63/63/1 65/65/1
f 71/71/1 70/70/1 65/65/1 66/66/1
f 72/72/1 71/71/1 66/66/1 67/67/1
f 74/74/1 73/73/1 71/71/1 72/72/1
f 73/73/1 75/75/1 70/70/1 71/71/1
f 75/75/1 76/76/1 69/69/1 70/70/1
f 76/76/1 77/77/1 68/68/1 69/69/1
f 77/77/1 78/78/1 64/64/1 68/68/1
f 80/80/1 79/79/1 73/73/1 74/74/1
f 79/79/1 81/81/1 75/75/1 73/73/1
f 81/81/1 82/82/1 76/76/1 75/75/1
f 82/82/1 83/83/1 77/77/1 76/76/1
f 85/85/1 84/84/1 79/79/1 80/80/1
f 84/84/1 86/86/1 81/81/1 79/79/1
f 86/86/1 87/87/1 82/82/1 81/81/1
f 89/89/1 88/88/1 84/84/1 85/85/1
f 88/88/1 90/90/1 86/86/1 84/84/1
f 92/92/1 91/91/1 88/88/1 89/89/1
f 90/90/1 88/88/1 91/91/1 93/93/1
f 95/95/1 90/90/1 93/93/1 94/94/1
f 87/87/1 86/86/1 90/90/1 95/95/1
f 97/97/1 95/95/1 94/94/1 96/96/1
f 99/99/1 87/87/1 95/95/1 97/97/1
f 100/100/1 97/97/1 96/96/1 98/98/1
f 83/83/1 82/82/1 87/87/1 99/99/1
f 102/102/1 99/99/1 97/97/1 100/100/1
f 103/103/1 100/100/1 98/98/1 101/101/1
f 105/105/1 83/83/1 99/99/1 102/102/1
f 108/108/1 102/102/1 100/100/1 103/103/1
f 106/106/1 103/103/1 101/101/1 104/104/1
f 78/78/1 77/77/1 83/83/1 105/105/1
f 110/110/1 106/106/1 104/104/1 107/107/1
f 109/109/1 105/105/1 102/102/1 108/108/1
f 112/112/1 108/108/1 103/103/1 106/106/1
f 113/113/1 78/78/1 105/105/1 109/109/1
f 114/114/1 110/110/1 107/107/1 111/111/1
f 118/118/1 109/109/1 108/108/1 112/112/1
f 117/117/1 112/112/1 106/106/1 110/110/1
f 51/51/1 64/64/1 78/78/1 113/113/1
f 116/116/1 114/114/1 111/111/1 115/115/1
f 120/120/1 117/117/1 110/110/1 114/114/1
f 119/119/1 113/113/1 109/109/1 118/118/1
f 121/121/1 118/118/1 112/112/1 117/117/1
f 40/40/1 51/51/1 113/113/1 119/119/1
f 38/38/1 120/120/1 114/114/1 116/116/1
f 39/39/1 119/119/1 118/118/1 121/121/1
f 37/37/1 121/121/1 117/117/1 120/120/1

